<svg width="40" height="40" viewBox="0 0 40 40" fill="none" xmlns="http://www.w3.org/2000/svg">
<circle cx="20" cy="20" r="20" fill="white"/>
<path d="M20.4969 15.665C18.3853 15.665 16.662 17.3883 16.662 19.5C16.662 21.6117 18.3853 23.335 20.4969 23.335C22.6085 23.335 24.3318 21.6117 24.3318 19.5C24.3318 17.3883 22.6085 15.665 20.4969 15.665ZM31.9987 19.5C31.9987 17.9119 32.0131 16.3382 31.9239 14.753C31.8347 12.9118 31.4147 11.2777 30.0683 9.93128C28.7191 8.582 27.0879 8.16484 25.2467 8.07566C23.6586 7.98647 22.085 8.00086 20.4998 8.00086C18.9117 8.00086 17.3381 7.98647 15.7529 8.07566C13.9117 8.16484 12.2776 8.58488 10.9312 9.93128C9.58199 11.2806 9.16484 12.9118 9.07565 14.753C8.98647 16.3411 9.00086 17.9148 9.00086 19.5C9.00086 21.0852 8.98647 22.6618 9.07565 24.247C9.16484 26.0882 9.58486 27.7223 10.9312 29.0687C12.2805 30.418 13.9117 30.8352 15.7529 30.9243C17.341 31.0135 18.9146 30.9991 20.4998 30.9991C22.0878 30.9991 23.6615 31.0135 25.2467 30.9243C27.0879 30.8352 28.7219 30.4151 30.0683 29.0687C31.4176 27.7194 31.8347 26.0882 31.9239 24.247C32.016 22.6618 31.9987 21.0881 31.9987 19.5ZM20.4969 25.4006C17.2316 25.4006 14.5964 22.7653 14.5964 19.5C14.5964 16.2347 17.2316 13.5994 20.4969 13.5994C23.7622 13.5994 26.3974 16.2347 26.3974 19.5C26.3974 22.7653 23.7622 25.4006 20.4969 25.4006ZM26.6391 14.7358C25.8767 14.7358 25.261 14.1201 25.261 13.3577C25.261 12.5953 25.8767 11.9797 26.6391 11.9797C27.4014 11.9797 28.0171 12.5953 28.0171 13.3577C28.0173 13.5388 27.9818 13.7181 27.9127 13.8854C27.8435 14.0526 27.742 14.2047 27.614 14.3327C27.486 14.4607 27.334 14.5622 27.1667 14.6313C26.9994 14.7005 26.8201 14.736 26.6391 14.7358Z" fill="#0775F3"/>
</svg>
