<svg width="40" height="40" viewBox="0 0 40 40" fill="none" xmlns="http://www.w3.org/2000/svg">
<circle cx="20" cy="20" r="20" fill="white"/>
<path d="M31 20.8864V29H26.313V21.4114C26.313 19.2795 25.5159 18.2136 23.9217 18.2136C22.742 18.2136 21.929 18.7864 21.4826 19.9318C21.387 20.1545 21.3391 20.5364 21.3391 21.0773V29H16.6043C16.6362 20.4409 16.6362 15.7159 16.6043 14.825H21.3391V16.8295L21.2913 16.8773H21.3391V16.8295C22.3594 15.2705 23.7783 14.4909 25.5957 14.4909C27.2217 14.4909 28.529 15.0318 29.5174 16.1136C30.5058 17.1955 31 18.7864 31 20.8864ZM11.6783 8C10.8812 8 10.2355 8.23068 9.7413 8.69205C9.2471 9.15341 9 9.73409 9 10.4341C9 11.1341 9.23913 11.7227 9.71739 12.2C10.1957 12.6773 10.8174 12.9159 11.5826 12.9159H11.6304C12.4275 12.9159 13.0732 12.6773 13.5674 12.2C14.0616 11.7227 14.3087 11.1341 14.3087 10.4341C14.2768 9.73409 14.0217 9.15341 13.5435 8.69205C13.0652 8.23068 12.4435 8 11.6783 8ZM9.23913 29H13.9739V14.825H9.23913V29Z" fill="#0775F3"/>
</svg>
